<svg xmlns="http://www.w3.org/2000/svg" width="912" height="937" viewBox="0 0 912 937" role="img" aria-labelledby="title desc">
  <title id="title">Polymai settings interface</title>
  <desc id="desc">A dark Polymai settings menu with navigation, readiness cards, provisioning controls, and platform setup checks.</desc>
  <defs>
    <filter id="shadow" x="-20%" y="-20%" width="140%" height="140%">
      <feDropShadow dx="0" dy="22" stdDeviation="22" flood-color="#000000" flood-opacity="0.32"/>
    </filter>
    <linearGradient id="panelSheen" x1="0" x2="1" y1="0" y2="1">
      <stop offset="0" stop-color="#2a2b2d"/>
      <stop offset="1" stop-color="#202123"/>
    </linearGradient>
  </defs>

  <rect width="912" height="937" fill="#111314"/>
  <rect x="1" y="1" width="910" height="935" fill="#111314" stroke="#2d2f31" stroke-width="2"/>
  <rect x="8" y="3" width="904" height="36" fill="#151718"/>
  <text x="30" y="25" fill="#dceaf5" font-family="Inter, Arial, sans-serif" font-size="12" letter-spacing="1.1">POLYMAI</text>

  <rect x="8" y="38" width="904" height="43" fill="#101112"/>
  <path d="M31 57h10M31 61h10M31 65h10" stroke="#aeb5ba" stroke-width="1.4" stroke-linecap="round"/>
  <text x="53" y="64" fill="#dceaf5" font-family="Inter, Arial, sans-serif" font-size="14" letter-spacing=".4">POLYMAI SETTINGS</text>
  <path d="M884 54l9 9m0-9l-9 9" stroke="#9ea3a8" stroke-width="1.6" stroke-linecap="round"/>
  <line x1="8" y1="81" x2="912" y2="81" stroke="#2b2d2f" stroke-width="1"/>

  <g font-family="Inter, Arial, sans-serif">
    <rect x="72" y="132" width="240" height="34" rx="7" fill="#2a2b2d"/>
    <text x="87" y="154" fill="#cfebff" font-size="13">O</text>
    <text x="110" y="154" fill="#f1f4f6" font-size="14">Overview</text>
    <text x="87" y="194" fill="#a6c0d2" font-size="13">S</text>
    <text x="110" y="194" fill="#b9c5ce" font-size="14">Supabase</text>
    <text x="87" y="234" fill="#d7a8c7" font-size="13">P</text>
    <text x="110" y="234" fill="#b9c5ce" font-size="14">Payments</text>
    <text x="87" y="274" fill="#d2c29d" font-size="13">E</text>
    <text x="110" y="274" fill="#b9c5ce" font-size="14">Email</text>
    <text x="87" y="314" fill="#a3c5b3" font-size="13">AI</text>
    <text x="110" y="314" fill="#b9c5ce" font-size="14">App AI</text>
    <text x="84" y="354" fill="#a7c2dc" font-size="13">GM</text>
    <text x="110" y="354" fill="#b9c5ce" font-size="14">Google Meet</text>
    <text x="87" y="394" fill="#aac8a7" font-size="13">A</text>
    <text x="110" y="394" fill="#b9c5ce" font-size="14">App Owner</text>
    <text x="87" y="434" fill="#d7ce9f" font-size="13">M</text>
    <text x="110" y="434" fill="#b9c5ce" font-size="14">Models &amp; APIs</text>
    <text x="87" y="474" fill="#a7c2dc" font-size="13">G</text>
    <text x="110" y="474" fill="#b9c5ce" font-size="14">Publish</text>
    <text x="87" y="514" fill="#adc2d3" font-size="13">D</text>
    <text x="110" y="514" fill="#b9c5ce" font-size="14">Advanced</text>
  </g>

  <g filter="url(#shadow)">
    <text x="366" y="151" fill="#eef4f8" font-family="Inter, Arial, sans-serif" font-size="20" font-weight="700">Overview</text>
    <rect x="455" y="132" width="156" height="22" rx="11" fill="#10242a" stroke="#2d7590"/>
    <circle cx="470" cy="143" r="4" fill="#66c4df"/>
    <text x="482" y="147" fill="#c8eeff" font-family="Inter, Arial, sans-serif" font-size="11">Checking provisioning...</text>
    <text x="366" y="177" fill="#acb8c1" font-family="Inter, Arial, sans-serif" font-size="13">Workspace readiness, common actions, and saved service status.</text>

    <g font-family="Inter, Arial, sans-serif">
      <g transform="translate(366 203)">
        <rect width="228" height="68" rx="8" fill="url(#panelSheen)" stroke="#343638"/>
        <text x="14" y="28" fill="#edf3f7" font-size="14" font-weight="700">Platform setup</text>
        <rect x="163" y="14" width="51" height="20" rx="10" fill="#0f2b1d" stroke="#1f8c54"/>
        <text x="176" y="28" fill="#6aff9e" font-size="10" font-weight="700">READY</text>
        <text x="14" y="53" fill="#aab5bd" font-size="12">10/10 workspace services ready</text>
      </g>
      <g transform="translate(604 203)">
        <rect width="228" height="68" rx="8" fill="url(#panelSheen)" stroke="#343638"/>
        <text x="14" y="28" fill="#edf3f7" font-size="14" font-weight="700">App provisioning</text>
        <rect x="163" y="14" width="51" height="20" rx="10" fill="#0f2b1d" stroke="#1f8c54"/>
        <text x="176" y="28" fill="#6aff9e" font-size="10" font-weight="700">READY</text>
        <text x="14" y="53" fill="#aab5bd" font-size="12">12/12 app checks ready</text>
      </g>
      <g transform="translate(366 282)">
        <rect width="228" height="68" rx="8" fill="url(#panelSheen)" stroke="#343638"/>
        <text x="14" y="28" fill="#edf3f7" font-size="14" font-weight="700">Supabase</text>
        <rect x="163" y="14" width="51" height="20" rx="10" fill="#0f2b1d" stroke="#1f8c54"/>
        <text x="176" y="28" fill="#6aff9e" font-size="10" font-weight="700">READY</text>
        <text x="14" y="53" fill="#aab5bd" font-size="12">4/4 Supabase checks ready</text>
      </g>
      <g transform="translate(604 282)">
        <rect width="228" height="68" rx="8" fill="url(#panelSheen)" stroke="#343638"/>
        <text x="14" y="28" fill="#edf3f7" font-size="14" font-weight="700">Payments</text>
        <rect x="163" y="14" width="51" height="20" rx="10" fill="#0f2b1d" stroke="#1f8c54"/>
        <text x="176" y="28" fill="#6aff9e" font-size="10" font-weight="700">READY</text>
        <text x="14" y="53" fill="#aab5bd" font-size="12">3/3 payment checks ready</text>
      </g>
      <g transform="translate(366 362)">
        <rect width="228" height="68" rx="8" fill="url(#panelSheen)" stroke="#343638"/>
        <text x="14" y="28" fill="#edf3f7" font-size="14" font-weight="700">Email</text>
        <rect x="163" y="14" width="51" height="20" rx="10" fill="#0f2b1d" stroke="#1f8c54"/>
        <text x="176" y="28" fill="#6aff9e" font-size="10" font-weight="700">READY</text>
        <text x="14" y="53" fill="#aab5bd" font-size="12">resend saved</text>
      </g>
      <g transform="translate(604 362)">
        <rect width="228" height="68" rx="8" fill="url(#panelSheen)" stroke="#343638"/>
        <text x="14" y="28" fill="#edf3f7" font-size="14" font-weight="700">App AI</text>
        <rect x="163" y="14" width="51" height="20" rx="10" fill="#0f2b1d" stroke="#1f8c54"/>
        <text x="176" y="28" fill="#6aff9e" font-size="10" font-weight="700">READY</text>
        <text x="14" y="53" fill="#aab5bd" font-size="12">openai saved</text>
      </g>
      <g transform="translate(366 442)">
        <rect width="228" height="68" rx="8" fill="url(#panelSheen)" stroke="#343638"/>
        <text x="14" y="28" fill="#edf3f7" font-size="14" font-weight="700">Google Meet</text>
        <rect x="163" y="14" width="51" height="20" rx="10" fill="#0f2b1d" stroke="#1f8c54"/>
        <text x="176" y="28" fill="#6aff9e" font-size="10" font-weight="700">READY</text>
        <text x="14" y="53" fill="#aab5bd" font-size="12">OAuth client saved / calendar primary</text>
      </g>
      <g transform="translate(604 442)">
        <rect width="228" height="68" rx="8" fill="url(#panelSheen)" stroke="#343638"/>
        <text x="14" y="28" fill="#edf3f7" font-size="14" font-weight="700">Publish</text>
        <rect x="163" y="14" width="51" height="20" rx="10" fill="#0f2b1d" stroke="#1f8c54"/>
        <text x="176" y="28" fill="#6aff9e" font-size="10" font-weight="700">READY</text>
        <text x="14" y="53" fill="#aab5bd" font-size="12">Polymai/bookbox-ai</text>
      </g>
    </g>

    <text x="366" y="537" fill="#aeb8c2" font-family="Inter, Arial, sans-serif" font-size="15" font-weight="700" letter-spacing="1.4">COMMON ACTIONS</text>
    <text x="366" y="574" fill="#aab5bd" font-family="Inter, Arial, sans-serif" font-size="12">Provisioning automation</text>
    <rect x="366" y="585" width="465" height="29" rx="8" fill="#17191a" stroke="#3a3c3e"/>
    <text x="382" y="604" fill="#ffffff" font-family="Inter, Arial, sans-serif" font-size="14">Ask / one-click</text>
    <path d="M815 596l6 6 6-6" stroke="#dce2e6" stroke-width="1.6" fill="none" stroke-linecap="round" stroke-linejoin="round"/>
    <text x="366" y="631" fill="#9aa6ae" font-family="Inter, Arial, sans-serif" font-size="10">Runs Supabase first, then Stripe webhook/secrets and payment smoke tests. Live Stripe stays manual.</text>
    <rect x="366" y="648" width="465" height="32" rx="8" fill="#12351f" stroke="#155f34"/>
    <text x="534" y="668" fill="#7d9984" font-family="Inter, Arial, sans-serif" font-size="14" font-weight="700">Run provisioning now</text>
    <text x="366" y="699" fill="#aeb8c2" font-family="Inter, Arial, sans-serif" font-size="15" font-weight="700" letter-spacing="1.4">READINESS</text>
    <text x="366" y="763" fill="#dfefff" font-family="Inter, Arial, sans-serif" font-size="12" font-weight="700" letter-spacing="1">PLATFORM SETUP CHECKLIST</text>
    <text x="366" y="784" fill="#9da7af" font-family="Inter, Arial, sans-serif" font-size="10">Configured and saved workspace services.</text>
    <rect x="366" y="792" width="465" height="113" rx="8" fill="#232426" stroke="#333638"/>
    <g font-family="Inter, Arial, sans-serif" font-size="11" fill="#e7edf1">
      <circle cx="382" cy="811" r="5" fill="#1da663"/>
      <path d="M379 811l2 2 5-6" stroke="#ffffff" stroke-width="1.4" fill="none" stroke-linecap="round" stroke-linejoin="round"/>
      <text x="400" y="815" font-weight="700">Polymai OpenAI API</text><text x="501" y="815" fill="#a9b2ba">saved</text>
      <circle cx="382" cy="837" r="5" fill="#1da663"/>
      <path d="M379 837l2 2 5-6" stroke="#ffffff" stroke-width="1.4" fill="none" stroke-linecap="round" stroke-linejoin="round"/>
      <text x="400" y="841" font-weight="700">Supabase client config</text><text x="524" y="841" fill="#a9b2ba">Project URL + publishable key saved</text>
      <circle cx="382" cy="863" r="5" fill="#1da663"/>
      <path d="M379 863l2 2 5-6" stroke="#ffffff" stroke-width="1.4" fill="none" stroke-linecap="round" stroke-linejoin="round"/>
      <text x="400" y="867" font-weight="700">Supabase provisioning access</text><text x="563" y="867" fill="#a9b2ba">DB/service/management settings saved</text>
      <circle cx="382" cy="889" r="5" fill="#1da663"/>
      <path d="M379 889l2 2 5-6" stroke="#ffffff" stroke-width="1.4" fill="none" stroke-linecap="round" stroke-linejoin="round"/>
      <text x="400" y="893" font-weight="700">Stripe Payments</text><text x="491" y="893" fill="#a9b2ba">test keys saved</text>
    </g>
  </g>

  <rect x="839" y="154" width="10" height="399" rx="5" fill="#343638"/>
  <path d="M844 139l7 9h-14z" fill="#252729"/>
  <path d="M844 901l7-9h-14z" fill="#252729"/>
</svg>
